<svg width="30" height="30" viewBox="0 0 30 30" fill="none" xmlns="http://www.w3.org/2000/svg">
<g id="&#240;&#159;&#166;&#134; icon &#34;copyright&#34;">
<path id="Vector" d="M15 27.757C22.0456 27.757 27.7573 22.0454 27.7573 14.9998C27.7573 7.95411 22.0456 2.24249 15 2.24249C7.95436 2.24249 2.24274 7.95411 2.24274 14.9998C2.24274 22.0454 7.95436 27.757 15 27.757Z" stroke="#313030" stroke-width="4.395" stroke-linecap="round" stroke-linejoin="round"/>
<path id="Vector_2" d="M18.5436 10.7477C17.8276 10.026 16.9445 9.55573 16.0004 9.39337C15.0562 9.231 14.0911 9.38344 13.2209 9.83239C12.3507 10.2813 11.6124 11.0077 11.0944 11.9244C10.5765 12.841 10.301 13.909 10.301 15.0001C10.301 16.0913 10.5765 17.1593 11.0944 18.0759C11.6124 18.9926 12.3507 19.719 13.2209 20.1679C14.0911 20.6168 15.0562 20.7693 16.0004 20.6069C16.9445 20.4446 17.8276 19.9743 18.5436 19.2526" stroke="#313030" stroke-width="4.395" stroke-linecap="round" stroke-linejoin="round"/>
</g>
</svg>
