<svg width="30" height="32" viewBox="0 0 30 32" fill="none" xmlns="http://www.w3.org/2000/svg">
<g id="Group 34694">
<path id="Vector 17 (Stroke)" fill-rule="evenodd" clip-rule="evenodd" d="M0.496102 0.683017C1.22527 -0.148252 2.49194 -0.232492 3.32528 0.494872L15.9161 11.4846C18.6548 13.875 18.655 18.125 15.9161 20.5154L3.32528 31.5052C2.49194 32.2325 1.22527 32.1482 0.496102 31.3169C-0.23307 30.4858 -0.14862 29.2222 0.684715 28.4948L13.2755 17.5051C14.1884 16.7083 14.1884 15.2917 13.2755 14.4949L0.684715 3.50517C-0.14862 2.77781 -0.23307 1.51429 0.496102 0.683017Z" fill="white"/>
<path id="Vector 18 (Stroke)" fill-rule="evenodd" clip-rule="evenodd" d="M12.5259 0.683017C13.2551 -0.148252 14.5218 -0.232492 15.355 0.494872L27.9459 11.4846C30.6846 13.875 30.6848 18.125 27.9459 20.5154L15.355 31.5052C14.5218 32.2325 13.2551 32.1482 12.5259 31.3169C11.7968 30.4858 11.8811 29.2222 12.7145 28.4948L25.3053 17.5051C26.2182 16.7083 26.2182 15.2917 25.3053 14.4949L12.7145 3.50517C11.8811 2.77781 11.7968 1.51429 12.5259 0.683017Z" fill="white"/>
</g>
</svg>
